<?xml version="1.0" encoding="UTF-8"?> <svg xmlns="http://www.w3.org/2000/svg" width="96" height="96" fill="none"><path fill-rule="evenodd" clip-rule="evenodd" d="M38 20h4v4H26v-4h12Zm-16 8v-4h4v4h-4Zm0 20h-4V28h4v20Zm4 4h-4v-4h4v4Zm4 4h-4v-4h4v4Zm4 4h-4v-4h4v4Zm4 4h-4v-4h4v4Zm4 4h-4v-4h4v4Zm12-44v-4h16v4h4v4h4v20h-4v4h-4v4h-4v4h-4v4h-4v4h-4v4h-4v4h-4v-4h-4v-4h8v-4h4v-4h4v-4h4v-4h4v-4h4V32h-4v-4h-4v-4h-8Zm-4 4v-4h4v4h-4Zm-4 0h4v4h-4v-4Zm0 0v-4h-4v4h4Zm-16 0h4v4h-4v-4Zm0 4v4h-4v-4h4Z" fill="#1A1A1A"></path></svg> 