<?xml version="1.0" encoding="UTF-8"?> <svg xmlns="http://www.w3.org/2000/svg" width="24" height="24" viewBox="0 0 24 24" fill="none"> <path d="M6.48619 11.425C6.18799 10.5252 5.48206 9.81925 4.58227 9.52104L2.15176 8.71554C1.46634 8.48839 1.46634 7.51885 2.15175 7.2917L4.58227 6.48619C5.48206 6.18799 6.18799 5.48206 6.48619 4.58227L7.2917 2.15176C7.51885 1.46634 8.48838 1.46634 8.71554 2.15175L9.52104 4.58227C9.81925 5.48206 10.5252 6.18799 11.425 6.48619L13.8555 7.2917C14.5409 7.51885 14.5409 8.48838 13.8555 8.71554L11.425 9.52104C10.5252 9.81925 9.81925 10.5252 9.52104 11.425L8.71554 13.8555C8.48838 14.5409 7.51885 14.5409 7.2917 13.8555L6.48619 11.425ZM17.0141 14.3823C16.8281 13.6974 16.293 13.1623 15.6081 12.9763L13.7721 12.4777C13.2801 12.3441 13.2801 11.6463 13.7721 11.5127L15.6081 11.0141C16.293 10.8281 16.8281 10.293 17.0141 9.60811L17.5127 7.77207C17.6463 7.28011 18.3441 7.28011 18.4777 7.77207L18.9763 9.60811C19.1623 10.293 19.6974 10.8281 20.3823 11.0141L22.2183 11.5127C22.7103 11.6463 22.7103 12.3441 22.2183 12.4777L20.3823 12.9763C19.6974 13.1623 19.1623 13.6974 18.9763 14.3823L18.4777 16.2183C18.3441 16.7103 17.6463 16.7103 17.5127 16.2183L17.0141 14.3823ZM10.3803 18.9187C10.7228 19.0117 10.9903 19.2792 11.0833 19.6216L11.5185 21.2241C11.652 21.7161 12.3499 21.7161 12.4835 21.2241L12.9187 19.6216C13.0117 19.2792 13.2792 19.0117 13.6216 18.9187L15.2241 18.4835C15.7161 18.3499 15.7161 17.652 15.2241 17.5185L13.6216 17.0833C13.2792 16.9903 13.0117 16.7228 12.9187 16.3803L12.4835 14.7779C12.3499 14.2859 11.652 14.2859 11.5185 14.7779L11.0833 16.3803C10.9903 16.7228 10.7228 16.9903 10.3803 17.0833L8.77785 17.5185C8.2859 17.652 8.2859 18.3499 8.77785 18.4835L10.3803 18.9187Z" fill="#1A1A1A"></path> </svg> 